<?xml version="1.0" encoding="iso-8859-1"?>
<!-- Uploaded to: SVG Repo, www.svgrepo.com, Generator: SVG Repo Mixer Tools -->
<svg xmlns="http://www.w3.org/2000/svg" xmlns:xlink="http://www.w3.org/1999/xlink" version="1.1" id="Layer_1"  viewBox="0 0 480.119 480.119" xml:space="preserve" width="512" height="512">
<g id="_x32_0._Blackboard">
	<g id="XMLID_68_">
		<g>
			<g>
				<path style="fill:#FF7124;" d="M470.12,97.89v284.34c0,8.28-6.71,15-15,15H25c-8.29,0-15-6.72-15-15V97.89c0-8.28,6.71-15,15-15      h430.12C463.41,82.89,470.12,89.61,470.12,97.89z M430.12,352.23V127.89c0-2.76-2.23-5-5-5H55c-2.77,0-5,2.24-5,5v224.34      c0,2.76,2.23,5,5,5h229.86h89.6h50.66C427.89,357.23,430.12,354.99,430.12,352.23z"/>
			</g>
			<g>
				<path style="fill:#F2D59F;" d="M314.18,236.53c-0.08,0-0.17,0-0.25,0v0.01C314.01,236.54,314.1,236.54,314.18,236.53z       M430.12,127.89v224.34c0,2.76-2.23,5-5,5h-50.66v-32.24h-89.6v32.24H55c-2.77,0-5-2.24-5-5V127.89c0-2.76,2.23-5,5-5h370.12      C427.89,122.89,430.12,125.13,430.12,127.89z"/>
			</g>
			<g>
				<rect x="284.86" y="324.99" style="fill:#8ECAC1;" width="89.6" height="32.24"/>
			</g>
		</g>
		<g>
			<g>
				<path style="fill:#5E2A41;" d="M425.119,367.229H374.46c-5.522,0-10-4.477-10-10c0-5.522,4.478-10,10-10h45.659V132.89H60      v214.34h224.859c5.522,0,10,4.478,10,10c0,5.523-4.478,10-10,10H55c-8.271,0-15-6.728-15-15V127.89c0-8.271,6.729-15,15-15      h370.119c8.271,0,15,6.729,15,15v224.34C440.119,360.501,433.391,367.229,425.119,367.229z"/>
			</g>
			<g>
				<path style="fill:#5E2A41;" d="M374.46,367.229h-89.601c-5.522,0-10-4.477-10-10v-32.24c0-5.522,4.478-10,10-10h89.601      c5.523,0,10,4.478,10,10v32.24C384.46,362.752,379.983,367.229,374.46,367.229z M294.859,347.229h69.601v-12.24h-69.601V347.229      z"/>
			</g>
			<g>
				<path style="fill:#5E2A41;" d="M186.43,290.39h-48.021c-5.522,0-10-4.478-10-10v-1.07c0-2.704,1.096-5.293,3.036-7.177      l8.11-7.87c27.145-25.827,31.514-33.722,31.514-42.663c0-8.216-3.704-11.88-12.01-11.88c-3.954,0-7.929,1.233-11.813,3.666      c-2.452,1.536-5.448,1.935-8.217,1.092c-2.768-0.841-5.035-2.84-6.218-5.48l-0.13-0.29c-2.257-5.04-0.001-10.956,5.04-13.214      c0.445-0.199,0.898-0.363,1.354-0.494c6.391-3.505,13.1-5.279,19.982-5.279c19.445,0,32.01,12.514,32.01,31.88      c0,17.601-10.833,30.972-29.025,48.78h24.386c5.522,0,10,4.477,10,10C196.43,285.912,191.952,290.39,186.43,290.39z"/>
			</g>
			<g>
				<path style="fill:#5E2A41;" d="M314.179,246.529c-5.497,0-9.968-4.439-9.999-9.943c-0.031-5.522,4.421-10.025,9.943-10.057      c9.768-0.056,14.217-4.844,14.217-9.27c0-3.232-1.023-7.53-9.87-7.53c-3.951,0-8.557,1.278-12.636,3.506      c-4.845,2.65-10.921,0.866-13.569-3.981c-2.648-4.847-0.865-10.922,3.981-13.569c4.07-2.225,12.37-5.955,22.224-5.955      c20.634,0,29.87,13.827,29.87,27.53c0,7.75-3.455,15.273-9.48,20.642c-6.272,5.589-14.787,8.572-24.623,8.628      C314.217,246.529,314.197,246.529,314.179,246.529z"/>
			</g>
			<g>
				<path style="fill:#5E2A41;" d="M313.93,246.54c-5.522,0-10-4.478-10-10c0-5.523,4.478-10.011,10-10.011h0.25      c5.265,0,9.627,4.081,9.978,9.334c0.351,5.252-3.431,9.877-8.648,10.577C314.852,246.528,314.319,246.54,313.93,246.54z       M313.93,226.54c-0.181,0-0.577,0.011-1.079,0.078l1.079,8.048V226.54z"/>
			</g>
			<g>
				<path style="fill:#5E2A41;" d="M317,290.369c-10.334,0-19.198-3.421-23.563-5.46c-5.004-2.337-7.165-8.288-4.827-13.292      c2.336-5.004,8.287-7.165,13.292-4.827c4.798,2.241,10.441,3.579,15.098,3.579c6.638,0,10.071-2.079,11.782-3.823      c1.886-1.922,2.98-4.792,2.93-7.679c-0.042-3.726-1.838-12.253-17.586-12.338c-5.523-0.03-9.976-4.531-9.946-10.054      c0.03-5.505,4.502-9.946,9.999-9.946c0.019,0,0.037,0,0.055,0c22.202,0.12,37.262,12.999,37.476,32.048      c0.146,8.191-3.007,16.226-8.652,21.977C338.664,285.031,330.577,290.369,317,290.369z"/>
			</g>
			<g>
				<path style="fill:#5E2A41;" d="M258.75,268.97c-2.56,0-5.118-0.977-7.071-2.929l-32.301-32.3      c-3.905-3.905-3.905-10.236,0-14.143c3.904-3.904,10.236-3.904,14.142,0l32.301,32.3c3.905,3.905,3.905,10.237,0,14.142      C263.868,267.993,261.31,268.97,258.75,268.97z"/>
			</g>
			<g>
				<path style="fill:#5E2A41;" d="M226.449,268.97c-2.56,0-5.118-0.977-7.071-2.929c-3.905-3.905-3.905-10.237,0-14.142      l32.301-32.3c3.907-3.905,10.237-3.903,14.143,0c3.905,3.906,3.905,10.237,0,14.143l-32.301,32.3      C231.567,267.993,229.009,268.97,226.449,268.97z"/>
			</g>
			<g>
				<path style="fill:#5E2A41;" d="M455.119,407.229H25c-13.785,0-25-11.215-25-25V97.89c0-13.785,11.215-25,25-25h430.119      c13.785,0,25,11.215,25,25v284.34C480.119,396.015,468.904,407.229,455.119,407.229z M25,92.89c-2.757,0-5,2.243-5,5v284.34      c0,2.757,2.243,5,5,5h430.119c2.757,0,5-2.243,5-5V97.89c0-2.757-2.243-5-5-5H25z"/>
			</g>
		</g>
	</g>
</g>















</svg>