<svg width="32" height="32" viewBox="0 0 32 32" fill="none" xmlns="http://www.w3.org/2000/svg">
<path d="M2.66667 2.66669H4.98667C6.42667 2.66669 7.56001 3.90669 7.44001 5.33335L6.33334 18.6134C6.29013 19.1278 6.35425 19.6457 6.52165 20.1341C6.68905 20.6225 6.95607 21.0708 7.30579 21.4506C7.65551 21.8304 8.08031 22.1334 8.55327 22.3405C9.02624 22.5475 9.53705 22.6541 10.0533 22.6534H24.2533C26.1733 22.6534 27.8533 21.08 28 19.1734L28.72 9.17335C28.88 6.96002 27.2 5.16002 24.9733 5.16002H7.76001M12 10.6667H28M21.6667 29.3334C22.1087 29.3334 22.5326 29.1578 22.8452 28.8452C23.1577 28.5326 23.3333 28.1087 23.3333 27.6667C23.3333 27.2247 23.1577 26.8007 22.8452 26.4882C22.5326 26.1756 22.1087 26 21.6667 26C21.2246 26 20.8007 26.1756 20.4882 26.4882C20.1756 26.8007 20 27.2247 20 27.6667C20 28.1087 20.1756 28.5326 20.4882 28.8452C20.8007 29.1578 21.2246 29.3334 21.6667 29.3334ZM11 29.3334C11.442 29.3334 11.866 29.1578 12.1785 28.8452C12.4911 28.5326 12.6667 28.1087 12.6667 27.6667C12.6667 27.2247 12.4911 26.8007 12.1785 26.4882C11.866 26.1756 11.442 26 11 26C10.558 26 10.1341 26.1756 9.82149 26.4882C9.50893 26.8007 9.33334 27.2247 9.33334 27.6667C9.33334 28.1087 9.50893 28.5326 9.82149 28.8452C10.1341 29.1578 10.558 29.3334 11 29.3334Z" stroke="#5C5C5C" stroke-width="1.5" stroke-miterlimit="10" stroke-linecap="round" stroke-linejoin="round"/>
</svg>
