<svg width="32" height="32" viewBox="0 0 32 32" fill="none" xmlns="http://www.w3.org/2000/svg">
<path d="M27.4533 29.3334C27.4533 24.1734 22.32 20 16 20C9.68 20 4.54666 24.1734 4.54666 29.3334M16 16C17.7681 16 19.4638 15.2976 20.714 14.0474C21.9643 12.7972 22.6667 11.1015 22.6667 9.33335C22.6667 7.56524 21.9643 5.86955 20.714 4.61931C19.4638 3.36907 17.7681 2.66669 16 2.66669C14.2319 2.66669 12.5362 3.36907 11.2859 4.61931C10.0357 5.86955 9.33333 7.56524 9.33333 9.33335C9.33333 11.1015 10.0357 12.7972 11.2859 14.0474C12.5362 15.2976 14.2319 16 16 16Z" stroke="#5C5C5C" stroke-width="1.5" stroke-linecap="round" stroke-linejoin="round"/>
</svg>
